<svg width="20" height="69" fill="none" xmlns="http://www.w3.org/2000/svg"><path d="M16.262 61.757l-3.889 2.256v1.68h3.889v2.208h-11.2v-4.48c0-1.034.362-1.914 1.087-2.64a3.576 3.576 0 012.624-1.088c.694 0 1.34.198 1.937.592a3.73 3.73 0 011.327 1.568l4.225-2.48v2.384zm-9.137 3.936h3.313v-2.272c0-.416-.16-.773-.48-1.072a1.706 1.706 0 00-1.185-.448c-.458 0-.848.15-1.168.448-.32.3-.48.656-.48 1.072v2.272zm9.36-11.718c0 1.248-.351 2.272-1.055 3.072-.704.8-1.649 1.2-2.832 1.2H5.06v-2.192h7.36c.587 0 1.051-.165 1.393-.496.34-.34.511-.869.511-1.584 0-.714-.17-1.237-.511-1.568-.342-.34-.806-.512-1.393-.512H5.06v-2.208h7.537c1.183 0 2.127.4 2.832 1.2.704.8 1.055 1.83 1.055 3.088z" fill="#828282"/><path d="M19.462 43.698H4.742v-2.064h14.72v2.064zM14.149 33.35v-4.72h2.113v6.928h-11.2V28.71h2.111v4.64h2.384v-4.24h2.08v4.24h2.512zM5.062 20.593v-2.208h11.2v1.68l-6.848 4.8h6.849v2.208h-11.2v-1.68l6.831-4.8H5.061zm5.184-15.277h.865c1.6 0 2.896.512 3.888 1.536s1.487 2.346 1.487 3.968c0 1.728-.56 3.162-1.68 4.304-1.13 1.13-2.506 1.696-4.127 1.696-1.633 0-3.014-.56-4.145-1.68-1.13-1.131-1.696-2.528-1.696-4.192 0-1.046.24-2 .72-2.864.47-.864 1.1-1.536 1.888-2.016l1.088 1.888c-.458.266-.832.672-1.12 1.216a3.71 3.71 0 00-.432 1.792c0 1.066.352 1.946 1.056 2.64.694.682 1.574 1.024 2.64 1.024 1.056 0 1.931-.347 2.625-1.04.682-.704 1.024-1.632 1.024-2.784 0-.854-.187-1.558-.56-2.112a2.85 2.85 0 00-1.569-1.152v3.392h-1.951V5.316z" fill="#000"/></svg>